<?xml version="1.0" encoding="utf-8"?>
<svg viewBox="299.9885 275.57 13.9995 10" xmlns="http://www.w3.org/2000/svg">
  <path d="M 304.988 275.57 C 304.723 275.57 304.469 275.675 304.281 275.863 L 300.281 279.863 C 299.891 280.254 299.891 280.887 300.281 281.277 L 304.281 285.277 C 304.469 285.465 304.723 285.57 304.988 285.57 L 312.988 285.57 C 313.54 285.57 313.988 285.122 313.988 284.57 L 313.988 276.57 C 313.988 276.018 313.54 275.57 312.988 275.57 L 304.988 275.57 Z M 303.988 279.57 C 304.54 279.57 304.988 280.018 304.988 280.57 C 304.988 281.122 304.54 281.57 303.988 281.57 C 303.436 281.57 302.988 281.122 302.988 280.57 C 302.988 280.018 303.436 279.57 303.988 279.57 Z" fill-rule="evenodd" style="fill: rgb(254, 144, 77);"/>
</svg>